<?xml version="1.0" standalone="no"?>
<!DOCTYPE svg PUBLIC "-//W3C//DTD SVG 20010904//EN"
 "http://www.w3.org/TR/2001/REC-SVG-20010904/DTD/svg10.dtd">
<svg version="1.0" xmlns="http://www.w3.org/2000/svg"
 width="260.000000pt" height="260.000000pt" viewBox="0 0 260.000000 260.000000"
 preserveAspectRatio="xMidYMid meet">
<metadata>
Created by potrace 1.14, written by Peter Selinger 2001-2017
</metadata>
<g transform="translate(0.000000,260.000000) scale(0.100000,-0.100000)"
fill="#000000" stroke="none">
<path d="M1741 2027 c-1 -36 -17 -67 -47 -92 l-23 -20 44 -118 c24 -65 49
-125 55 -133 16 -18 63 -18 100 1 30 16 45 49 37 82 -3 10 -5 4 -6 -14 -1 -21
-6 -33 -15 -33 -15 0 -101 233 -92 249 3 5 -1 11 -9 15 -8 3 -15 11 -15 18 -1
7 -7 27 -15 43 l-13 30 -1 -28z"/>
<path d="M1482 1984 c-26 -18 -30 -65 -7 -84 56 -46 140 35 87 83 -23 21 -51
22 -80 1z"/>
<path d="M1533 1866 c-59 -20 -97 -40 -55 -30 17 5 25 -9 61 -108 46 -126 49
-143 24 -157 -30 -17 -8 -12 69 15 86 31 84 30 70 47 -6 7 -30 64 -53 127 -23
63 -44 118 -48 121 -3 4 -34 -3 -68 -15z"/>
<path d="M1201 1837 c-1 -41 -28 -85 -64 -107 -18 -11 -25 -20 -17 -20 10 0
26 -33 49 -98 56 -161 68 -174 136 -152 41 14 65 44 64 80 -1 24 -2 23 -8 -4
-12 -56 -28 -37 -70 81 -45 129 -47 139 -28 147 6 3 3 4 -7 3 -14 -1 -23 10
-37 48 -14 41 -18 45 -18 22z"/>
<path d="M2216 1709 c-18 -14 -26 -30 -26 -52 0 -37 17 -63 83 -130 l47 -47 0
29 c0 16 5 52 11 79 14 57 7 94 -21 122 -26 26 -60 25 -94 -1z"/>
<path d="M681 1707 c-1 -23 -44 -39 -90 -32 l-36 5 34 -11 c43 -13 112 -60
135 -91 l17 -23 -7 25 c-13 50 -53 144 -53 127z"/>
<path d="M966 1670 c-59 -18 -96 -73 -96 -145 0 -90 59 -155 141 -155 28 0 60
5 72 11 27 14 67 50 67 60 0 4 -13 -6 -30 -22 -46 -47 -77 -38 -112 31 -15 30
-28 57 -28 60 0 3 36 18 80 34 44 15 80 31 80 33 0 20 -46 74 -74 87 -37 18
-56 19 -100 6z m44 -52 c30 -65 23 -88 -25 -88 -15 0 -40 92 -31 115 10 28 37
15 56 -27z"/>
<path d="M2037 1657 c-49 -19 -55 -24 -39 -33 14 -9 52 -101 52 -126 0 -2 -13
-3 -29 0 -85 12 -130 -107 -80 -213 26 -55 65 -85 111 -85 39 0 78 24 78 48 1
16 1 16 10 0 10 -15 15 -15 71 4 48 16 57 22 46 32 -8 6 -45 98 -82 204 -38
105 -71 192 -74 191 -3 0 -32 -10 -64 -22z m22 -201 c30 -49 61 -143 61 -187
0 -39 -15 -58 -31 -42 -16 16 -91 242 -84 253 12 19 34 10 54 -24z"/>
<path d="M505 1654 c-64 -33 -111 -99 -126 -179 -24 -129 81 -254 214 -255 63
0 107 19 143 63 37 46 74 61 101 42 18 -13 17 -4 -13 77 -31 87 -34 118 -11
118 6 0 8 2 6 5 -3 2 -50 -11 -104 -31 -98 -35 -134 -52 -84 -39 32 8 40 -2
70 -87 19 -55 21 -70 11 -92 -13 -28 -49 -42 -87 -32 -72 18 -170 328 -122
388 6 8 21 20 32 26 31 18 4 14 -30 -4z"/>
<path d="M1153 1495 c0 -22 2 -30 4 -17 2 12 2 30 0 40 -3 9 -5 -1 -4 -23z"/>
<path d="M2311 1404 c-12 -15 -21 -32 -21 -39 0 -19 32 -52 56 -59 30 -9 74
28 74 63 0 59 -72 82 -109 35z"/>
<path d="M1471 1392 c-1 -48 -26 -89 -69 -112 -20 -11 -28 -18 -17 -15 18 4
25 -7 59 -104 46 -133 58 -151 97 -151 64 0 109 45 96 97 -3 10 -5 4 -6 -14
-2 -64 -27 -34 -69 85 -23 64 -42 121 -42 125 0 4 10 12 23 18 20 9 20 9 -5 4
-24 -5 -28 -1 -47 47 -19 50 -20 51 -20 20z"/>
<path d="M1715 1396 c-90 -40 -117 -153 -58 -243 33 -51 118 -68 187 -39 32
13 66 50 66 71 0 5 -9 -5 -20 -22 -20 -33 -57 -50 -85 -39 -9 3 -28 31 -42 62
-21 46 -23 58 -12 65 11 7 11 9 -2 9 -10 0 -20 15 -27 39 -16 53 -15 81 4 88
20 8 36 -12 54 -67 12 -36 12 -43 -1 -51 -10 -8 -7 -8 11 -3 103 29 119 47 78
91 -48 51 -97 64 -153 39z"/>
<path d="M1912 1225 c0 -16 2 -22 5 -12 2 9 2 23 0 30 -3 6 -5 -1 -5 -18z"/>
<path d="M1232 1225 c-18 -8 -35 -21 -38 -30 -4 -9 -13 -14 -20 -11 -7 3 -41
-5 -76 -17 -39 -13 -55 -23 -43 -25 28 -4 113 -235 95 -257 -7 -8 -10 -15 -7
-15 6 0 120 41 125 45 1 1 -16 50 -38 110 -44 119 -46 133 -26 161 13 17 16
17 30 4 8 -8 33 -65 54 -126 31 -86 37 -115 29 -124 -9 -10 -9 -12 3 -8 109
38 120 43 114 58 -4 8 -22 58 -41 110 -19 52 -42 103 -52 112 -23 25 -70 30
-109 13z"/>
<path d="M857 1212 c-33 -36 -8 -92 39 -92 26 0 60 25 67 49 13 51 -69 84
-106 43z"/>
<path d="M915 1103 c-51 -21 -50 -20 -36 -36 6 -8 29 -65 51 -127 34 -93 38
-115 28 -128 -11 -14 -10 -15 7 -8 11 5 47 17 80 28 58 20 100 43 57 32 -21
-6 -18 -13 -87 179 -30 84 -34 87 -100 60z"/>
<path d="M355 1051 c-19 -8 -19 -8 1 -19 38 -20 91 -172 72 -206 -5 -9 -19
-16 -32 -16 -21 0 -28 13 -61 108 -21 59 -38 108 -40 109 -2 3 -168 -57 -174
-63 -3 -2 9 -1 26 2 30 6 31 5 60 -73 17 -43 48 -129 69 -191 39 -112 39 -113
19 -129 l-20 -15 20 6 c50 15 207 76 183 71 -21 -4 -31 0 -43 18 -11 18 -55
130 -55 142 0 2 12 5 28 8 75 15 140 97 128 161 -10 50 -56 88 -113 92 -26 2
-57 0 -68 -5z"/>
<path d="M739 1043 c-13 -16 -12 -17 4 -4 9 7 17 15 17 17 0 8 -8 3 -21 -13z"/>
<path d="M800 1051 c0 -6 -8 -11 -18 -11 -24 0 -42 -19 -42 -46 0 -55 72 -72
99 -23 12 22 12 29 0 54 -14 29 -39 46 -39 26z"/>
<path d="M633 1001 c-37 -14 -41 -19 -30 -31 16 -17 87 -216 87 -242 0 -10 -5
-18 -12 -18 -6 0 -9 -2 -6 -5 2 -3 40 8 82 24 45 16 72 30 64 34 -16 6 -88
195 -88 231 0 28 -38 31 -97 7z"/>
</g>
</svg>
